<svg width="159" height="26" viewBox="0 0 159 26" fill="none" xmlns="http://www.w3.org/2000/svg">
    <path d="M146.094 7.09891H148.661L147.361 3.7334L146.094 7.09891Z" fill="#FF9D00"/>
    <path d="M152.454 0H145.775C142.175 0 139.229 2.94457 139.229 6.54259V6.85529C139.229 10.4533 142.175 13.3979 145.775 13.3979H152.454C156.054 13.3979 159 10.4533 159 6.85529V6.54259C159 2.94457 156.054 0 152.454 0ZM149.72 9.96623L149.044 8.14817H145.718L145.042 9.96623H143.649L146.59 2.64289H148.202L151.185 9.96623H149.719H149.72ZM153.565 9.96623H152.255V2.64289H153.565V9.96623Z" fill="#FF9D00"/>
    <path d="M0 25.6863V2.69897H4.03684V11.4876L3.31691 13.896H4.34968C5.1007 11.6439 6.8524 9.67353 10.6075 9.67353C15.1447 9.67353 17.6785 13.3016 17.6785 17.8367C17.6785 22.3719 15.1437 26 10.6075 26C6.8524 26 5.1007 24.0296 4.34968 21.8096H3.31691L4.03684 24.1869V25.6883H0V25.6863ZM8.88586 22.4961C11.7957 22.4961 13.6416 21.089 13.6416 17.8357C13.6416 14.5825 11.7957 13.1753 8.88586 13.1753C5.97605 13.1753 4.03584 14.5825 4.03584 17.8357C4.03584 21.089 6.00713 22.4961 8.88586 22.4961Z" fill="black"/>
    <path d="M37.8599 25.6864H33.8552V24.185L34.5751 21.8077H33.5424C32.7913 24.0287 30.8511 25.998 27.2846 25.998C22.5288 25.998 19.7754 22.37 19.7754 17.8348C19.7754 13.2997 22.5288 9.67163 27.2846 9.67163C30.8511 9.67163 32.7913 11.642 33.5424 13.894H34.5751L33.8552 11.4857V9.98433H37.8599V25.6843V25.6864ZM28.7856 13.1764C25.8758 13.1764 23.8102 14.4583 23.8102 17.8368C23.8102 21.2154 25.8758 22.4972 28.7856 22.4972C31.6954 22.4972 33.8542 21.2154 33.8542 17.8368C33.8542 14.4583 31.6643 13.1764 28.7856 13.1764Z" fill="black"/>
    <path d="M48.2177 9.67358C52.035 9.67358 55.9144 11.7693 56.2282 16.2723H52.1924C51.8795 14.2398 50.3464 13.1764 48.2187 13.1764C45.34 13.1764 43.9011 15.1157 43.9011 17.8368C43.9011 20.5579 45.34 22.4972 48.2187 22.4972C50.3464 22.4972 51.8795 21.4338 52.1924 19.4013H56.2282C55.9154 23.9053 52.036 26 48.2177 26C43.1802 26 39.8633 22.8099 39.8633 17.8368C39.8633 12.8637 43.1802 9.67358 48.2177 9.67358Z" fill="black"/>
    <path d="M85.0457 9.67358C89.7393 9.67358 92.9619 12.551 92.9619 17.3357V18.6496H80.8534C80.9156 20.9327 82.2612 22.7157 85.5159 22.7157C87.6126 22.7157 89.0825 21.8397 89.4896 20.182H93.5254C93.0873 22.4962 90.772 25.999 85.5149 25.999C79.6642 25.999 77.0352 22.1213 77.0352 17.6484C77.0352 12.6442 80.3521 9.67358 85.0457 9.67358ZM89.1447 16.2102C89.1447 14.4903 87.9555 12.989 85.0457 12.989C82.1358 12.989 80.8534 14.4903 80.8534 16.2102H89.1447Z" fill="black"/>
    <path d="M100.283 19.4313V25.6863H96.2471V9.98626H100.283V12.2072L99.563 14.6156H100.596C101.221 11.8013 103.193 9.67456 106.572 9.67456C110.389 9.67456 112.767 12.114 112.767 16.7744V25.6873H108.763V17.3677C108.763 14.334 107.73 13.1774 105.227 13.1774C102.286 13.1774 100.284 15.0856 100.284 19.4323L100.283 19.4313Z" fill="black"/>
    <path d="M132.981 25.6863H128.945V24.1849L129.696 21.8076H128.633C127.881 24.0286 126.161 25.9979 122.375 25.9979C117.838 25.9979 115.304 22.3699 115.304 17.8347C115.304 13.2996 117.839 9.67153 122.375 9.67153C126.161 9.67153 127.881 11.6419 128.633 13.8939H129.696L128.945 11.4856V2.69897H132.981V25.6863ZM124.095 13.1763C121.186 13.1763 119.34 14.5835 119.34 17.8367C119.34 21.09 121.186 22.4971 124.095 22.4971C127.005 22.4971 128.945 21.09 128.945 17.8367C128.945 14.5835 127.005 13.1763 124.095 13.1763Z" fill="black"/>
    <path d="M70.1827 9.98631L62.8611 16.2102V9.61548H58.8242V25.6863H62.8611V21.0891L65.7709 18.6496L71.2466 25.6863H76.0966L68.6496 16.2413L76.0966 9.98631H70.1827Z" fill="black"/>
</svg>