<svg viewBox="0 0 241 80" fill="none" xmlns="http://www.w3.org/2000/svg" class="mobile:ml-1.5 w-[110px]">
    <path fill-rule="evenodd" clip-rule="evenodd"
          d="M53.4928 9.95354C48.8986 7.5822 43.7011 6.09465 38.8714 6.15566L38.8524 6.1559H38.8333C20.8138 6.1559 6.09475 21.2448 6.09475 39.9981C6.09475 58.7513 20.8138 73.8402 38.8333 73.8402H38.8623L38.8912 73.8407C49.1951 74.0386 59.02 68.8017 64.7987 60.8413C65.794 59.4703 66.089 57.8377 65.8025 55.8846C65.5076 53.874 64.6099 51.6901 63.4179 49.5746C62.4056 47.7777 61.2465 46.1445 60.244 44.8581C59.1168 46.2389 57.6256 47.9591 55.8755 49.7243C51.9856 53.6476 46.2612 58.3724 40.0914 59.3211C28.3551 61.1257 17.8218 51.9392 18.1204 39.9209C18.4091 28.3039 28.4833 19.4404 40.1181 21.3362C45.9809 22.2915 51.6881 26.8036 55.6224 30.5409C57.4044 32.2337 58.9381 33.8815 60.1008 35.2003C61.041 33.9326 62.1201 32.3179 63.0488 30.5226C65.3338 26.1051 66.1645 21.7303 63.8522 18.3872C61.8286 15.4614 58.1089 12.3362 53.4928 9.95354ZM64.1588 39.9614C64.2502 39.8457 64.3438 39.7258 64.4395 39.602C65.6203 38.0739 67.1422 35.902 68.4511 33.3715C70.9574 28.5262 73.2418 21.2147 68.849 14.8637C66.1014 10.8912 61.4986 7.1745 56.267 4.47415C51.0191 1.76537 44.8511 -0.0701468 38.8144 0.00205663C17.3146 0.0125864 -9.68735e-07 17.9781 0 39.9981C9.68735e-07 62.0146 17.3092 79.9779 38.8043 79.994C51.1567 80.2211 62.8149 73.9835 69.7144 64.4793C71.8901 61.4822 72.2885 58.098 71.8315 54.983C71.383 51.9254 70.1003 48.9897 68.7155 46.5317C67.3168 44.0492 65.7206 41.8912 64.4892 40.3662C64.3761 40.2262 64.2659 40.0912 64.1588 39.9614ZM56.2333 40.0807C56.1565 39.9909 56.077 39.8984 55.9949 39.8034C54.8827 38.5167 53.3062 36.7899 51.4461 35.0229C47.5749 31.3455 43.0382 28.0455 39.1472 27.4115C31.2743 26.1287 24.4123 32.0637 24.2132 40.0752C24.0115 48.195 31.1195 54.4758 39.1739 53.2374C43.2582 52.6093 47.7777 49.1936 51.5682 45.3705C53.3911 43.5319 54.9172 41.732 55.9882 40.3899C56.0729 40.2838 56.1546 40.1806 56.2333 40.0807Z"
          fill="currentColor"></path>
    <path d="M118.767 34.2557H112.392C112.21 33.2102 111.875 32.2841 111.386 31.4773C110.898 30.6591 110.29 29.9659 109.562 29.3977C108.835 28.8295 108.006 28.4034 107.074 28.1193C106.153 27.8239 105.159 27.6761 104.091 27.6761C102.193 27.6761 100.511 28.1534 99.0455 29.108C97.5795 30.0511 96.4318 31.4375 95.6023 33.267C94.7727 35.0852 94.358 37.3068 94.358 39.9318C94.358 42.6023 94.7727 44.8523 95.6023 46.6818C96.4432 48.5 97.5909 49.875 99.0455 50.8068C100.511 51.7273 102.188 52.1875 104.074 52.1875C105.119 52.1875 106.097 52.0511 107.006 51.7784C107.926 51.4943 108.75 51.0795 109.477 50.5341C110.216 49.9886 110.835 49.3182 111.335 48.5227C111.847 47.7273 112.199 46.8182 112.392 45.7955L118.767 45.8295C118.528 47.4886 118.011 49.0455 117.216 50.5C116.432 51.9545 115.403 53.2386 114.131 54.3523C112.858 55.4545 111.369 56.3182 109.665 56.9432C107.96 57.5568 106.068 57.8636 103.989 57.8636C100.92 57.8636 98.1818 57.1534 95.7727 55.733C93.3636 54.3125 91.4659 52.2614 90.0795 49.5795C88.6932 46.8977 88 43.6818 88 39.9318C88 36.1705 88.6989 32.9545 90.0966 30.2841C91.4943 27.6023 93.3977 25.5511 95.8068 24.1307C98.2159 22.7102 100.943 22 103.989 22C105.932 22 107.739 22.2727 109.409 22.8182C111.08 23.3636 112.568 24.1648 113.875 25.2216C115.182 26.267 116.256 27.5511 117.097 29.0739C117.949 30.5852 118.506 32.3125 118.767 34.2557Z"
          fill="currentColor"></path>
    <path d="M135.418 57.8977C132.861 57.8977 130.645 57.3352 128.77 56.2102C126.895 55.0852 125.441 53.5114 124.407 51.4886C123.384 49.4659 122.873 47.1023 122.873 44.3977C122.873 41.6932 123.384 39.3239 124.407 37.2898C125.441 35.2557 126.895 33.6761 128.77 32.5511C130.645 31.4261 132.861 30.8636 135.418 30.8636C137.975 30.8636 140.191 31.4261 142.066 32.5511C143.941 33.6761 145.39 35.2557 146.412 37.2898C147.446 39.3239 147.963 41.6932 147.963 44.3977C147.963 47.1023 147.446 49.4659 146.412 51.4886C145.39 53.5114 143.941 55.0852 142.066 56.2102C140.191 57.3352 137.975 57.8977 135.418 57.8977ZM135.452 52.9545C136.838 52.9545 137.998 52.5739 138.929 51.8125C139.861 51.0398 140.554 50.0057 141.009 48.7102C141.475 47.4148 141.708 45.9716 141.708 44.3807C141.708 42.7784 141.475 41.3295 141.009 40.0341C140.554 38.7273 139.861 37.6875 138.929 36.9148C137.998 36.142 136.838 35.7557 135.452 35.7557C134.032 35.7557 132.85 36.142 131.907 36.9148C130.975 37.6875 130.276 38.7273 129.81 40.0341C129.355 41.3295 129.128 42.7784 129.128 44.3807C129.128 45.9716 129.355 47.4148 129.81 48.7102C130.276 50.0057 130.975 51.0398 131.907 51.8125C132.85 52.5739 134.032 52.9545 135.452 52.9545Z"
          fill="currentColor"></path>
    <path d="M152.913 57.3864V31.2045H158.896V35.5682H159.168C159.646 34.0568 160.464 32.892 161.623 32.0739C162.793 31.2443 164.129 30.8295 165.629 30.8295C165.969 30.8295 166.35 30.8466 166.771 30.8807C167.202 30.9034 167.56 30.9432 167.844 31V36.6761C167.583 36.5852 167.168 36.5057 166.6 36.4375C166.043 36.358 165.504 36.3182 164.981 36.3182C163.856 36.3182 162.844 36.5625 161.947 37.0511C161.06 37.5284 160.362 38.1932 159.85 39.0455C159.339 39.8977 159.083 40.8807 159.083 41.9943V57.3864H152.913Z"
          fill="currentColor"></path>
    <path d="M186.136 31.2045V35.9773H171.085V31.2045H186.136ZM174.801 24.9318H180.971V49.5114C180.971 50.3409 181.096 50.9773 181.346 51.4205C181.608 51.8523 181.949 52.1477 182.369 52.3068C182.789 52.4659 183.255 52.5455 183.767 52.5455C184.153 52.5455 184.505 52.517 184.824 52.4602C185.153 52.4034 185.403 52.3523 185.574 52.3068L186.613 57.1307C186.284 57.2443 185.812 57.3693 185.199 57.5057C184.596 57.642 183.858 57.7216 182.983 57.7443C181.437 57.7898 180.045 57.5568 178.806 57.0455C177.568 56.5227 176.585 55.7159 175.858 54.625C175.142 53.5341 174.789 52.1705 174.801 50.5341V24.9318Z"
          fill="currentColor"></path>
    <path d="M202.318 57.8977C199.693 57.8977 197.426 57.3523 195.517 56.2614C193.619 55.1591 192.159 53.6023 191.136 51.5909C190.114 49.5682 189.602 47.1875 189.602 44.4489C189.602 41.7557 190.114 39.392 191.136 37.358C192.17 35.3125 193.614 33.7216 195.466 32.5852C197.318 31.4375 199.494 30.8636 201.994 30.8636C203.608 30.8636 205.131 31.125 206.562 31.6477C208.006 32.1591 209.278 32.9545 210.381 34.0341C211.494 35.1136 212.369 36.4886 213.006 38.1591C213.642 39.8182 213.96 41.7955 213.96 44.0909V45.983H192.5V41.8239H208.045C208.034 40.642 207.778 39.5909 207.278 38.6705C206.778 37.7386 206.08 37.0057 205.182 36.4716C204.295 35.9375 203.261 35.6705 202.08 35.6705C200.818 35.6705 199.71 35.9773 198.756 36.5909C197.801 37.1932 197.057 37.9886 196.523 38.9773C196 39.9545 195.733 41.0284 195.722 42.1989V45.8295C195.722 47.3523 196 48.6591 196.557 49.75C197.114 50.8295 197.892 51.6591 198.892 52.2386C199.892 52.8068 201.062 53.0909 202.403 53.0909C203.301 53.0909 204.114 52.9659 204.841 52.7159C205.568 52.4545 206.199 52.0739 206.733 51.5739C207.267 51.0739 207.67 50.4545 207.943 49.7159L213.705 50.3636C213.341 51.8864 212.648 53.2159 211.625 54.3523C210.614 55.4773 209.318 56.3523 207.739 56.9773C206.159 57.5909 204.352 57.8977 202.318 57.8977Z"
          fill="currentColor"></path>
    <path d="M223.375 31.2045L228.659 40.8693L234.029 31.2045H240.557L232.665 44.2955L240.694 57.3864H234.199L228.659 47.9602L223.171 57.3864H216.625L224.603 44.2955L216.83 31.2045H223.375Z"
          fill="currentColor"></path>
</svg>