<svg xmlns="http://www.w3.org/2000/svg" viewBox="0 0 192 28" width="192" height="28" class="hidden md:block"><path fill="currentColor" d="M30.253 2.439c1.52-.066 3.382.065 4.582 1.109.578.502.87 1.168.916 1.92.022.36-.044.755-.127 1.106-.46 1.963-1.855 3.859-3.186 5.36a41.54 41.54 0 0 1-3.32 3.28 48.368 48.368 0 0 1-5.481 4.271 56.043 56.043 0 0 1-3.535 2.165c-.808.463-1.613.928-2.443 1.353-3.531 1.808-7.653 3.304-11.645 3.549-1.602.098-3.706-.137-4.958-1.235-.594-.522-1.005-1.24-1.05-2.037-.142-2.54 2.084-5.53 3.727-7.353.288.059.576.116.864.17-.118.125-.22.273-.325.408-.294.381-.569.77-.832 1.173a12 12 0 0 0-.586 1.054c-.532 1.08-.998 2.454-.58 3.647.245.694.792 1.18 1.447 1.489 2.724 1.284 6.77.165 9.48-.79 5.555-1.958 11.343-5.883 15.501-10.004 1.34-1.327 2.73-2.835 3.547-4.546.421-.88.74-1.932.39-2.89-.217-.588-.64-.976-1.202-1.238-2.116-.987-6.051-.21-8.238.426-.464.135-.92.298-1.374.46-.096-.24-.232-.474-.348-.706.244-.083.484-.196.724-.292.4-.156.802-.303 1.21-.44a27.537 27.537 0 0 1 6.842-1.41Z"></path><path fill="currentColor" d="M19.58 1.398c.025.017.03.033.038.06.15.45.26.916.397 1.37.405 1.337.903 2.646 1.66 3.829 1.35 2.114 3.394 3.492 5.708 4.403.448.177 1.075.428 1.543.532-.09.194-1.239 1.277-1.48 1.518-.06.058-.117.106-.187.152-.326.009-.691-.122-1-.22a12.58 12.58 0 0 1-1.682-.686 12.213 12.213 0 0 1-2.97-2.07 11.97 11.97 0 0 1-1.031-1.102 12.142 12.142 0 0 1-1.484-2.27c-.2-.388-.768-1.532-.796-1.936-.011-.154.116-.388.175-.533a43.48 43.48 0 0 0 1.11-3.047ZM3.89 12.852c.606.193 1.218.337 1.832.5.771.205 1.537.428 2.298.669 3.085.996 5.71 2.657 7.518 5.378.317.477.589.975.85 1.483l-.677.296c-.473.222-.967.417-1.45.616-.2-.442-.484-.87-.755-1.272-1.758-2.602-4.465-3.99-7.434-4.807-.307-.085-.615-.161-.926-.23-.27-.06-1.069-.185-1.257-.297-.075-.211-.011-1.016-.007-1.275.005-.354 0-.707.008-1.06ZM16.748 24.354c.014.012.016.023.016.042-.004.12-.196.605-.244.745-.12.356-.236.714-.347 1.073-.03.102-.093.45-.172.51-.05-.082-.067-.23-.091-.325-.135-.502-.253-1.013-.41-1.508.423-.158.831-.364 1.248-.537ZM18.911 0h.025c.009.194-.415 1.373-.5 1.633-.944 2.881-1.956 5.822-4.053 8.104a11.793 11.793 0 0 1-2.923 2.322 11.793 11.793 0 0 1-2.055.915c-.299.1-.807.274-1.12.285-.305.01-1.412-.336-1.792-.434-.474-.12-.95-.232-1.427-.336-.333-.075-.667-.162-1.004-.219.309-.094.613-.203.923-.291.59-.168 1.184-.313 1.77-.499 3.365-1.069 5.786-2.474 7.492-5.667.663-1.242 1.133-2.594 1.552-3.931.11-.348.214-.698.311-1.05.056-.198.154-.668.245-.817.283.044.676.012.969.012.496 0 1.004.024 1.499-.003A.225.225 0 0 0 18.91 0ZM18.043 23.736c.16-.102.335-.184.503-.274.272-.146.544-.295.815-.445.65-.358 1.285-.742 1.935-1.1-.524.92-.914 1.899-1.275 2.89a25.619 25.619 0 0 0-.626 1.935c-.1.353-.177.752-.307 1.092a.31.31 0 0 1-.129.166h-2.338c.227-.972.552-1.943.885-2.884.162-.457.323-.946.537-1.38Z"></path><path fill="currentColor" d="M16.352 0h2.56a.225.225 0 0 1-.09.024c-.494.027-1.002.003-1.498.003-.293 0-.686.032-.97-.012L16.353 0ZM41.654 24.267V3.877h3.539l10.181 17.92V3.877h2.495v20.39h-3.713L44.148 6.69v17.576h-2.494ZM67.424 24.611c-1.45 0-2.707-.325-3.77-.976-1.045-.651-1.857-1.57-2.438-2.757-.56-1.206-.84-2.613-.84-4.222 0-1.608.28-3.005.84-4.192.58-1.187 1.383-2.106 2.408-2.757 1.044-.67 2.272-1.005 3.684-1.005 1.334 0 2.514.315 3.539.947 1.025.613 1.818 1.513 2.379 2.7.58 1.187.87 2.632.87 4.336v.718H62.928c.097 1.627.532 2.853 1.305 3.676.793.823 1.857 1.235 3.191 1.235 1.006 0 1.828-.23 2.466-.69a3.674 3.674 0 0 0 1.363-1.866l2.61.201c-.405 1.36-1.179 2.48-2.32 3.36-1.121.861-2.495 1.292-4.119 1.292Zm-4.496-9.333h8.5c-.117-1.474-.552-2.556-1.306-3.245-.735-.69-1.673-1.034-2.814-1.034-1.18 0-2.156.364-2.93 1.091-.754.709-1.237 1.771-1.45 3.188ZM81.283 24.611c-1.527 0-2.755-.507-3.684-1.522-.909-1.034-1.363-2.45-1.363-4.25V9.046h2.437v9.133c0 1.474.26 2.565.783 3.273.541.69 1.363 1.034 2.465 1.034 1.219 0 2.176-.383 2.872-1.149.697-.785 1.045-1.857 1.045-3.216V9.046h2.436v15.22h-2.32v-3.761l.377.2c-.31 1.245-.9 2.212-1.77 2.901-.87.67-1.963 1.005-3.278 1.005ZM91.76 24.267V9.047h2.147l.116 3.847-.232-.086c.194-1.302.61-2.25 1.248-2.843.657-.613 1.527-.919 2.61-.919h1.509v2.298h-1.48c-.773 0-1.421.143-1.943.43-.503.268-.89.68-1.16 1.235-.252.536-.378 1.226-.378 2.068v9.19h-2.436ZM106.435 24.611c-1.412 0-2.65-.325-3.713-.976-1.064-.651-1.886-1.57-2.466-2.757-.58-1.206-.87-2.613-.87-4.222 0-1.627.29-3.034.87-4.221.58-1.187 1.402-2.106 2.466-2.757 1.063-.651 2.301-.976 3.713-.976 1.411 0 2.639.325 3.684.976 1.063.65 1.885 1.57 2.465 2.757.58 1.187.871 2.594.871 4.221 0 1.609-.291 3.016-.871 4.222-.58 1.187-1.402 2.106-2.465 2.757-1.045.65-2.273.976-3.684.976Zm0-2.297c1.411 0 2.504-.498 3.278-1.494.792-1.014 1.189-2.402 1.189-4.164 0-1.761-.397-3.14-1.189-4.135-.774-1.015-1.867-1.522-3.278-1.522-1.412 0-2.514.507-3.307 1.522-.793.996-1.189 2.374-1.189 4.135 0 1.762.396 3.15 1.189 4.165.793.995 1.895 1.493 3.307 1.493ZM121.213 24.611c-1.373 0-2.543-.22-3.51-.66-.947-.44-1.692-1.044-2.233-1.81-.522-.784-.822-1.675-.899-2.67l2.552-.172c.155.918.551 1.655 1.19 2.21.638.537 1.605.805 2.9.805 1.045 0 1.876-.163 2.495-.488.638-.345.957-.89.957-1.637 0-.402-.096-.737-.29-1.005-.193-.268-.57-.498-1.131-.69-.561-.21-1.392-.411-2.495-.603-1.469-.268-2.63-.593-3.481-.976-.831-.402-1.431-.89-1.798-1.465-.348-.593-.522-1.292-.522-2.096 0-1.36.503-2.47 1.508-3.331 1.006-.881 2.437-1.321 4.293-1.321 1.257 0 2.311.23 3.162.689.87.44 1.547 1.034 2.031 1.78.502.728.831 1.532.986 2.413l-2.553.172a3.485 3.485 0 0 0-.638-1.407 3.051 3.051 0 0 0-1.218-.977c-.503-.249-1.103-.373-1.799-.373-1.102 0-1.914.21-2.436.632-.522.421-.784.957-.784 1.608 0 .498.116.91.349 1.235.251.306.647.565 1.189.775.541.192 1.267.364 2.175.517 1.567.268 2.785.594 3.655.977.871.383 1.48.852 1.828 1.407.348.555.522 1.235.522 2.039 0 .938-.271 1.742-.812 2.412-.522.651-1.238 1.149-2.147 1.493-.889.345-1.905.517-3.046.517ZM135.388 24.611c-1.431 0-2.678-.325-3.742-.976-1.044-.651-1.857-1.57-2.437-2.757-.58-1.206-.87-2.613-.87-4.222 0-1.608.29-3.005.87-4.192.58-1.187 1.393-2.106 2.437-2.757 1.064-.67 2.311-1.005 3.742-1.005 1.18 0 2.224.21 3.133.631a5.449 5.449 0 0 1 2.262 1.78c.58.786.958 1.743 1.132 2.873l-2.553.172c-.174-1.015-.619-1.79-1.334-2.326-.716-.555-1.596-.833-2.64-.833-1.412 0-2.514.507-3.307 1.522-.793.996-1.189 2.374-1.189 4.135 0 1.762.396 3.15 1.189 4.165.793.995 1.895 1.493 3.307 1.493 1.044 0 1.924-.287 2.64-.862.715-.574 1.16-1.436 1.334-2.584l2.553.172c-.174 1.13-.552 2.116-1.132 2.958a5.943 5.943 0 0 1-2.262 1.924c-.909.46-1.953.69-3.133.69ZM148.32 24.611c-1.586 0-2.853-.364-3.8-1.091-.929-.727-1.393-1.742-1.393-3.044s.387-2.326 1.161-3.073c.773-.747 2.001-1.273 3.684-1.58l5.453-1.005c0-1.282-.309-2.24-.928-2.871-.6-.632-1.509-.948-2.727-.948-1.064 0-1.905.24-2.524.718-.619.46-1.044 1.13-1.276 2.01l-2.582-.2c.29-1.437.987-2.595 2.089-3.476 1.121-.9 2.553-1.35 4.293-1.35 1.972 0 3.481.556 4.525 1.666 1.044 1.091 1.567 2.604 1.567 4.538v6.289c0 .345.058.593.174.747.135.134.348.2.638.2h.609v2.126c-.077.019-.203.028-.377.028-.174.02-.358.03-.551.03-.696 0-1.267-.106-1.712-.317a2.034 2.034 0 0 1-.928-1.034c-.193-.478-.29-1.1-.29-1.866l.29.057c-.135.651-.464 1.245-.986 1.78-.522.518-1.17.93-1.944 1.235a7.021 7.021 0 0 1-2.465.431Zm.232-2.125c1.025 0 1.895-.191 2.61-.574.735-.402 1.296-.938 1.683-1.608a4.61 4.61 0 0 0 .58-2.298v-1.091l-4.989.919c-1.045.191-1.77.488-2.176.89-.387.383-.58.89-.58 1.522 0 .709.251 1.264.754 1.666.522.383 1.228.574 2.118.574ZM161.722 24.267c-.89 0-1.615-.23-2.176-.69-.561-.46-.841-1.187-.841-2.182V3.877h2.436v17.317c0 .306.078.546.232.718.174.153.416.23.726.23h1.334v2.125h-1.711ZM171.113 24.611c-1.451 0-2.708-.325-3.771-.976-1.045-.651-1.857-1.57-2.437-2.757-.561-1.206-.841-2.613-.841-4.222 0-1.608.28-3.005.841-4.192.58-1.187 1.383-2.106 2.408-2.757 1.044-.67 2.272-1.005 3.683-1.005 1.335 0 2.514.315 3.539.947 1.025.613 1.818 1.513 2.379 2.7.58 1.187.87 2.632.87 4.336v.718h-11.168c.097 1.627.532 2.853 1.306 3.676.793.823 1.856 1.235 3.191 1.235 1.005 0 1.827-.23 2.465-.69a3.676 3.676 0 0 0 1.364-1.866l2.61.201c-.406 1.36-1.179 2.48-2.32 3.36-1.122.861-2.495 1.292-4.119 1.292Zm-4.497-9.333h8.5c-.116-1.474-.552-2.556-1.306-3.245-.735-.69-1.673-1.034-2.814-1.034-1.179 0-2.156.364-2.929 1.091-.754.709-1.238 1.771-1.451 3.188ZM181.992 14.072l3.343-9.19h1.515l3.342 9.19h-1.227l-.927-2.615h-3.891l-.927 2.615h-1.228Zm2.534-3.702h3.133l-1.567-4.517-1.566 4.517ZM190.877 14.072v-9.19H192v9.19h-1.123Z"></path></svg>